#!OML:ASF E:\pregnant2\Project 1\Capture day 1\Session 1\pregnant2.ASF
:FULLY-SPECIFIED
:DEGREES
2206
root 6.67807 16.7058 40.692 -147.061 18.3009 177.646
lowerback -16.2258 -0.0682181 2.33331
upperback -15.5877 2.69324 -0.803636
thorax -7.71307 2.41525 -2.09782
lowerneck -15.6676 -0.144641 2.69698
upperneck 36.6325 4.0554 -4.77748
head 15.7272 2.56963 -1.48303
rclavicle 1.78906e-014 4.57205e-014
rhumerus -50.0826 2.88028 -82.4528
rradius 36.6061
rwrist 3.98808
rhand -17.974 -17.2077
rfingers 7.12502
rthumb 8.2954 -47.0248
lclavicle 1.78906e-014 4.57205e-014
lhumerus -49.7204 2.47447 80.6186
lradius 43.5746
lwrist -1.75091
lhand -7.98428 28.7571
lfingers 7.12502
lthumb 17.924 57.9511
rfemur -52.016 3.82121 23.6844
rtibia 33.8433
rfoot -41.3009 -39.0744
rtoes 38.0827
lfemur -45.4609 0.741883 -25.4894
ltibia 43.9054
lfoot -14.0584 25.9572
ltoes -8.39577
2207
root 6.64852 16.7096 40.7252 -147.023 17.6845 177.646
lowerback -16.2498 -0.107327 2.26275
upperback -15.6054 2.67747 -0.766432
thorax -7.72498 2.42816 -2.02162
lowerneck -15.7447 -0.333366 2.46608
upperneck 36.6744 3.82353 -4.70089
head 15.7468 2.45361 -1.44904
rclavicle 2.00276e-014 0
rhumerus -50.0645 3.23836 -82.9691
rradius 37.2219
rwrist 3.84494
rhand -17.9148 -16.8948
rfingers 7.12502
rthumb 8.35253 -46.7096
lclavicle 2.00276e-014 0
lhumerus -49.6301 2.6458 80.7471
lradius 43.2373
lwrist -1.83775
lhand -7.9742 28.8063
lfingers 7.12502
lthumb 17.9337 57.9995
rfemur -52.1091 3.70163 23.652
rtibia 33.7337
rfoot -41.6477 -39.2523
rtoes 38.41
lfemur -45.0216 0.736308 -25.5352
ltibia 43.4098
lfoot -13.2907 25.8353
ltoes -8.45702
2208
root 6.61683 16.7109 40.7592 -146.99 17.0361 177.718
lowerback -16.2282 -0.0913075 2.31781
upperback -15.6159 2.71735 -0.776607
thorax -7.74631 2.45199 -2.06251
lowerneck -15.8141 -0.573488 2.20521
upperneck 36.6799 3.4687 -4.5287
head 15.7373 2.291 -1.39142
rclavicle 4.57702e-014 -3.18055e-015
rhumerus -49.901 3.43333 -83.4808
rradius 37.7439
rwrist 3.74978
rhand -17.7778 -16.8608
rfingers 7.12502
rthumb 8.48476 -46.6704
lclavicle 4.57702e-014 -3.18055e-015
lhumerus -49.5497 2.62887 80.8898
lradius 43.001
lwrist -1.85291
lhand -7.89097 28.8311
lfingers 7.12502
lthumb 18.0137 58.0169
rfemur -52.1775 3.51962 23.7463
rtibia 33.6481
rfoot -41.9756 -39.3599
rtoes 38.6893
lfemur -44.5237 0.67264 -25.4692
ltibia 42.8549
lfoot -12.723 25.8355
ltoes -10.565
2209
root 6.58355 16.7118 40.7918 -146.957 16.4738 177.79
lowerback -16.2477 -0.117866 2.32187
upperback -15.6244 2.70688 -0.707675
thorax -7.75017 2.46031 -1.99285
lowerneck -15.8615 -0.726486 2.01053
upperneck 36.7072 3.28966 -4.47707
head 15.749 2.19914 -1.36535
rclavicle 1.91827e-014 -1.66979e-014
rhumerus -49.7899 3.86394 -83.9969
rradius 38.344
rwrist 3.59273
rhand -17.5746 -16.7735
rfingers 7.12502
rthumb 8.68089 -46.575
lclavicle 1.91827e-014 -1.66979e-014
lhumerus -49.4794 2.81249 81.0242
lradius 42.666
lwrist -1.93693
lhand -8.04116 28.7338
lfingers 7.12502
lthumb 17.8692 57.9328
rfemur -52.258 3.37711 23.8024
rtibia 33.5714
rfoot -42.285 -39.4241
rtoes 38.9707
lfemur -43.9963 0.558581 -25.391
ltibia 42.1938
lfoot -12.7575 25.7502
ltoes -14.2612
2210
root 6.54928 16.7136 40.8249 -146.938 15.9402 177.847
lowerback -16.2382 -0.169457 2.28724
upperback -15.6418 2.66906 -0.607378
thorax -7.78309 2.45999 -1.87257
lowerneck -15.833 -0.885961 1.72915
upperneck 36.7047 3.11343 -4.38523
head 15.7266 2.10298 -1.30604
rclavicle 3.47873e-016 -1.39149e-014
rhumerus -49.8287 4.56979 -84.6203
rradius 39.1919
rwrist 3.36902
rhand -17.1142 -17.1979
rfingers 7.12502
rthumb 9.12514 -46.9805
lclavicle 3.47873e-016 -1.39149e-014
lhumerus -49.4963 3.06022 81.1637
lradius 42.4146
lwrist -1.98331
lhand -8.028 28.7227
lfingers 7.12502
lthumb 17.8819 57.9206
rfemur -52.3367 3.24035 23.8309
rtibia 33.4932
rfoot -42.4799 -39.5758
rtoes 39.1082
lfemur -43.4874 0.30136 -25.2352
ltibia 41.3951
lfoot -13.0978 25.4593
ltoes -16.3398
2211
root 6.51298 16.7152 40.8588 -146.927 15.4291 177.909
lowerback -16.1888 -0.178879 2.28831
upperback -15.6601 2.68028 -0.563457
thorax -7.83286 2.47602 -1.82978
lowerneck -15.8463 -1.06823 1.53178
upperneck 36.7246 2.88536 -4.32185
head 15.7252 1.99236 -1.28325
rclavicle 2.31087e-014 1.27222e-014
rhumerus -49.7017 4.93668 -85.0905
rradius 39.7438
rwrist 3.42716
rhand -16.9366 -17.2214
rfingers 7.12502
rthumb 9.29654 -46.9964
lclavicle 2.31087e-014 1.27222e-014
lhumerus -49.4616 3.11945 81.3371
lradius 42.145
lwrist -2.02363
lhand -8.07954 28.7088
lfingers 7.12502
lthumb 17.8323 57.9112
rfemur -52.4032 3.15574 23.8196
rtibia 33.409
rfoot -42.8421 -39.6497
rtoes 39.4155
lfemur -43.0218 -0.0551713 -25.0154
ltibia 40.4483
lfoot -13.5119 25.2701
ltoes -16.9674
2212
root 6.47536 16.7186 40.8914 -146.926 14.9779 177.957
lowerback -16.1829 -0.151647 2.30666
upperback -15.6354 2.72174 -0.57389
thorax -7.80452 2.4982 -1.84658
lowerneck -15.9315 -1.22675 1.38052
upperneck 36.712 2.63929 -4.2152
head 15.7242 1.87894 -1.25453
rclavicle 2.74323e-014 -2.90226e-014
rhumerus -49.522 5.296 -85.5918
rradius 40.3118
rwrist 3.42075
rhand -16.7739 -17.0276
rfingers 7.12502
rthumb 9.45346 -46.7956
lclavicle 2.74323e-014 -2.90226e-014
lhumerus -49.3388 3.09485 81.508
lradius 41.8592
lwrist -2.0692
lhand -8.06237 28.8319
lfingers 7.12502
lthumb 17.8488 58.0328
rfemur -52.4657 3.02128 23.8151
rtibia 33.3239
rfoot -42.9581 -39.7804
rtoes 39.5665
lfemur -42.5937 -0.539627 -24.7372
ltibia 39.3569
lfoot -13.9067 25.2956
ltoes -16.8632
2213
root 6.43688 16.722 40.9245 -146.934 14.5459 178.021
lowerback -16.1244 -0.183172 2.28129
upperback -15.6645 2.70835 -0.496656
thorax -7.87496 2.50623 -1.75685
lowerneck -15.8507 -1.36919 1.18745
upperneck 36.7068 2.47408 -4.14924
head 15.6922 1.79854 -1.21972
rclavicle 2.03754e-015 -2.38542e-015
rhumerus -49.3957 5.80934 -86.0936
rradius 40.9078
rwrist 3.32629
rhand -16.3177 -17.5055
rfingers 7.12502
rthumb 9.89367 -47.253
lclavicle 2.03754e-015 -2.38542e-015
lhumerus -49.3696 3.20903 81.6693
lradius 41.5823
lwrist -2.11565
lhand -8.15429 28.676
lfingers 7.12502
lthumb 17.7604 57.885
rfemur -52.5084 2.93191 23.7971
rtibia 33.2257
rfoot -43.2422 -39.8457
rtoes 39.8891
lfemur -42.2091 -1.13115 -24.3805
ltibia 38.2018
lfoot -14.1371 25.5125
ltoes -16.9507
2214
root 6.39731 16.7236 40.9576 -146.935 14.1189 178.062
lowerback -16.0869 -0.199499 2.25764
upperback -15.6559 2.70044 -0.459659
thorax -7.88736 2.51054 -1.7067
lowerneck -15.9121 -1.50539 1.04994
upperneck 36.715 2.28172 -4.07881
head 15.7007 1.70735 -1.19913
rclavicle -9.93923e-015 -1.11319e-014
rhumerus -49.1491 6.19077 -86.527
rradius 41.4019
rwrist 3.29003
rhand -15.9222 -17.4557
rfingers 7.12502
rthumb 10.2752 -47.1847
lclavicle -9.93923e-015 -1.11319e-014
lhumerus -49.3187 3.26735 81.8312
lradius 41.2981
lwrist -2.20995
lhand -8.16474 28.5828
lfingers 7.12502
lthumb 17.7503 57.7927
rfemur -52.5724 2.84826 23.7391
rtibia 33.1198
rfoot -43.3783 -40.0619
rtoes 39.9978
lfemur -41.7625 -1.75647 -24.0705
ltibia 37.0362
lfoot -14.406 25.8082
ltoes -16.8434
2215
root 6.35713 16.7297 40.9912 -146.944 13.7004 178.071
lowerback -16.0578 -0.248002 2.20511
upperback -15.6534 2.65478 -0.403587
thorax -7.90515 2.50052 -1.62355
lowerneck -15.9304 -1.61732 0.917723
upperneck 36.7229 2.14065 -4.03181
head 15.7019 1.63771 -1.18
rclavicle 3.2551e-014 8.34896e-015
rhumerus -48.9076 6.61048 -86.93
rradius 41.8598
rwrist 3.33387
rhand -15.7406 -17.2052
rfingers 7.12502
rthumb 10.4503 -46.9254
lclavicle 3.2551e-014 8.34896e-015
lhumerus -49.2639 3.3492 82.0054
lradius 40.9487
lwrist -2.28714
lhand -8.16152 28.564
lfingers 7.12502
lthumb 17.7534 57.7736
rfemur -52.6283 2.82912 23.5899
rtibia 32.9919
rfoot -43.5914 -40.3285
rtoes 40.1445
lfemur -41.355 -2.38333 -23.8071
ltibia 35.9572
lfoot -14.5142 26.0009
ltoes -16.7013
2216
root 6.31506 16.7366 41.0242 -146.975 13.3045 178.045
lowerback -16.0061 -0.262534 2.14361
upperback -15.6554 2.6538 -0.406482
thorax -7.93574 2.50993 -1.59576
lowerneck -15.9363 -1.77778 0.762787
upperneck 36.7377 1.90513 -3.91417
head 15.6987 1.53559 -1.14328
rclavicle -2.3556e-014 -2.18663e-014
rhumerus -48.5947 6.88258 -87.3123
rradius 42.1124
rwrist 3.74458
rhand -15.7553 -17.0013
rfingers 7.12502
rthumb 10.4362 -46.7223
lclavicle -2.3556e-014 -2.18663e-014
lhumerus -49.2108 3.31778 82.1953
lradius 40.618
lwrist -2.39466
lhand -8.25146 28.4351
lfingers 7.12502
lthumb 17.6669 57.6525
rfemur -52.6575 2.75466 23.4162
rtibia 32.8539
rfoot -43.8741 -40.4463
rtoes 40.4127
lfemur -40.952 -2.9647 -23.6358
ltibia 34.9757
lfoot -14.4627 26.1802
ltoes -16.9476
2217
root 6.27457 16.7443 41.057 -146.979 12.9763 178.058
lowerback -16.0031 -0.324754 2.0322
upperback -15.6636 2.60045 -0.30917
thorax -7.95525 2.50594 -1.4358
lowerneck -15.8661 -1.87076 0.580189
upperneck 36.7066 1.79558 -3.83444
head 15.661 1.47788 -1.09506
rclavicle -2.16675e-014 -1.03368e-014
rhumerus -48.4046 7.35291 -87.647
rradius 42.5587
rwrist 3.99301
rhand -15.6182 -16.9429
rfingers 7.12502
rthumb 10.5685 -46.6572
lclavicle -2.16675e-014 -1.03368e-014
lhumerus -49.2179 3.42273 82.3928
lradius 40.2817
lwrist -2.51584
lhand -8.29811 28.3778
lfingers 7.12502
lthumb 17.622 57.5992
rfemur -52.6932 2.75185 23.2489
rtibia 32.7025
rfoot -44.1437 -40.5494
rtoes 40.7509
lfemur -40.6096 -3.3825 -23.5017
ltibia 34.1025
lfoot -14.5561 26.2463
ltoes -16.8684
2218
root 6.23442 16.7518 41.0905 -146.995 12.6768 178.06
lowerback -16.0125 -0.330019 1.92191
upperback -15.6377 2.60793 -0.296377
thorax -7.92146 2.52334 -1.35826
lowerneck -15.8695 -2.0124 0.454624
upperneck 36.6996 1.58009 -3.73582
head 15.649 1.38358 -1.06847
rclavicle -2.29099e-014 -3.22031e-014
rhumerus -48.1285 7.59885 -87.9472
rradius 42.941
rwrist 4.23482
rhand -15.5233 -16.8494
rfingers 7.12502
rthumb 10.66 -46.559
lclavicle -2.29099e-014 -3.22031e-014
lhumerus -49.0837 3.39743 82.5694
lradius 39.8853
lwrist -2.66772
lhand -8.25886 28.2917
lfingers 7.12502
lthumb 17.6598 57.5097
rfemur -52.7308 2.89571 22.9571
rtibia 32.5737
rfoot -44.6361 -40.693
rtoes 41.0365
lfemur -40.3079 -3.7852 -23.374
ltibia 33.288
lfoot -14.6812 26.2448
ltoes -16.7877
2219
root 6.19396 16.7567 41.1246 -147.006 12.3972 178.053
lowerback -16.0005 -0.366382 1.77763
upperback -15.632 2.58359 -0.25295
thorax -7.92593 2.53119 -1.23431
lowerneck -15.845 -2.12714 0.316007
upperneck 36.6714 1.40031 -3.62137
head 15.6216 1.30407 -1.02643
rclavicle -1.44616e-014 -5.1684e-015
rhumerus -47.8943 7.91117 -88.2425
rradius 43.3423
rwrist 4.46963
rhand -15.5114 -16.718
rfingers 7.12502
rthumb 10.6715 -46.4269
lclavicle -1.44616e-014 -5.1684e-015
lhumerus -49.0025 3.40953 82.7464
lradius 39.4913
lwrist -2.83739
lhand -8.24415 28.156
lfingers 7.12502
lthumb 17.6739 57.3727
rfemur -52.7946 2.99932 22.6835
rtibia 32.473
rfoot -45.1109 -40.7502
rtoes 41.3959
lfemur -40.0454 -4.26346 -23.2072
ltibia 32.5101
lfoot -14.8585 26.3338
ltoes -16.5136
2220
root 6.15174 16.7591 41.1589 -147.039 12.1286 178.007
lowerback -15.9971 -0.391173 1.63487
upperback -15.5963 2.56193 -0.245434
thorax -7.88851 2.53405 -1.14668
lowerneck -15.8867 -2.2413 0.191723
upperneck 36.6468 1.2028 -3.49167
head 15.6117 1.21743 -0.984563
rclavicle -3.11098e-014 -2.34566e-014
rhumerus -47.645 8.15488 -88.4905
rradius 43.7229
rwrist 4.69565
rhand -15.5103 -16.1593
rfingers 7.12502
rthumb 10.6726 -45.8683
lclavicle -3.11098e-014 -2.34566e-014
lhumerus -48.8418 3.38484 82.9222
lradius 39.0625
lwrist -2.99928
lhand -8.17345 28.134
lfingers 7.12502
lthumb 17.7419 57.3446
rfemur -52.867 3.18173 22.2872
rtibia 32.4089
rfoot -45.7332 -40.8461
rtoes 41.7271
lfemur -39.7868 -4.79025 -23.058
ltibia 31.7483
lfoot -14.9252 26.4179
ltoes -16.4253
